{
  "source": "C:\\Users\\Peter\\Desktop\\stuff\\MIUN\\quantitative_research\\video_compression\\videos\\BVI-HD\\RockWave_1920x1080_30fps.mp4",
  "output": "C:\\Users\\Peter\\Desktop\\stuff\\MIUN\\quantitative_research\\video_compression\\compressed_videos\\BVI-HD\\av1\\1\\RockWave_1920x1080_30fps_av1.mkv",
  "codec": "av1",
  "ok": "Input #0, mov,mp4,m4a,3gp,3g2,mj2, from 'C:\\Users\\Peter\\Desktop\\stuff\\MIUN\\quantitative_research\\video_compression\\videos\\BVI-HD\\RockWave_1920x1080_30fps.mp4':\n  Metadata:\n    major_brand     : isom\n    minor_version   : 512\n    compatible_brands: isomiso2avc1mp41\n    encoder         : Lavf54.28.101\n  Duration: 00:00:05.00, start: 0.000000, bitrate: 303557 kb/s\n  Stream #0:0[0x1](und): Video: h264 (High 4:4:4 Predictive) (avc1 / 0x31637661), yuv420p(progressive), 1920x1080, 303553 kb/s, 30 fps, 30 tbr, 30 tbn (default)\n    Metadata:\n      handler_name    : VideoHandler\n      vendor_id       : [0][0][0][0]\n[out#0/matroska @ 000001bb22c50c00] Codec AVOption b:a (set bitrate (in bits/s)) has not been used for any stream. The most likely reason is either wrong type (e.g. a video option with no video streams) or that it is a private option of some decoder which was not actually used for any stream.\nStream mapping:\n  Stream #0:0 -> #0:0 (h264 (native) -> av1 (libsvtav1))\nPress [q] to stop, [?] for help\nSvt[info]: -------------------------------------------\nSvt[info]: SVT [version]:\tSVT-AV1 Encoder Lib v3.1.0-19-g6ecfe8ec\nSvt[info]: SVT [build]  :\tGCC 15.2.0\t 64 bit\nSvt[info]: LIB Build date: Aug 17 2025 11:37:13\nSvt[info]: -------------------------------------------\nSvt[info]: Level of Parallelism: 5\nSvt[info]: Number of PPCS 93\nSvt[info]: [asm level on system : up to avx2]\nSvt[info]: [asm level selected : up to avx2]\nSvt[info]: -------------------------------------------\nSvt[info]: SVT [config]: main profile\ttier (auto)\tlevel (auto)\nSvt[info]: SVT [config]: width / height / fps numerator / fps denominator \t\t: 1920 / 1080 / 30 / 1\nSvt[info]: SVT [config]: bit-depth / color format \t\t\t\t\t: 8 / YUV420\nSvt[info]: SVT [config]: preset / tune / pred struct \t\t\t\t\t: 4 / PSNR / random access\nSvt[info]: SVT [config]: gop size / mini-gop size / key-frame type \t\t\t: 161 / 16 / key frame\nSvt[info]: SVT [config]: BRC mode / target bitrate (kbps)\t\t\t\t: VBR / 1000 \nSvt[info]: SVT [config]: AQ mode / Variance Boost \t\t\t\t\t: 2 / 0\nSvt[info]: SVT [config]: sharpness / luminance-based QP bias \t\t\t\t: 0 / 0\nSvt[info]: SVT [config]: QP scale compress strength \t\t\t\t\t: 0\nSvt[info]: -------------------------------------------\nOutput #0, matroska, to 'C:\\Users\\Peter\\Desktop\\stuff\\MIUN\\quantitative_research\\video_compression\\compressed_videos\\BVI-HD\\av1\\1\\RockWave_1920x1080_30fps_av1.mkv':\n  Metadata:\n    major_brand     : isom\n    minor_version   : 512\n    compatible_brands: isomiso2avc1mp41\n    encoder         : Lavf62.3.100\n  Stream #0:0(und): Video: av1 (AV01 / 0x31305641), yuv420p(tv, progressive), 1920x1080, q=2-31, 1000 kb/s, 30 fps, 1k tbn (default)\n    Metadata:\n      encoder         : Lavc62.11.100 libsvtav1\n      handler_name    : VideoHandler\n      vendor_id       : [0][0][0][0]\n    Side data:\n      cpb: bitrate max/min/avg: 0/0/1000000 buffer size: 1000000 vbv_delay: N/A\nframe=    0 fps=0.0 q=0.0 size=       0KiB time=N/A bitrate=N/A speed=N/A elapsed=0:00:01.04    \nframe=    0 fps=0.0 q=0.0 size=       0KiB time=N/A bitrate=N/A speed=N/A elapsed=0:00:01.56    \nframe=    0 fps=0.0 q=0.0 size=       0KiB time=N/A bitrate=N/A speed=N/A elapsed=0:00:02.07    \nframe=    0 fps=0.0 q=0.0 size=       0KiB time=N/A bitrate=N/A speed=N/A elapsed=0:00:02.59    \nframe=    0 fps=0.0 q=0.0 size=       0KiB time=N/A bitrate=N/A speed=N/A elapsed=0:00:03.12    \nframe=    0 fps=0.0 q=0.0 size=       0KiB time=N/A bitrate=N/A speed=N/A elapsed=0:00:03.64    \nframe=    0 fps=0.0 q=0.0 size=       0KiB time=N/A bitrate=N/A speed=N/A elapsed=0:00:04.15    \nframe=    0 fps=0.0 q=0.0 size=       0KiB time=N/A bitrate=N/A speed=N/A elapsed=0:00:04.67    \nframe=    1 fps=0.2 q=53.0 size=       1KiB time=00:00:00.00 bitrate=N/A speed=   0x elapsed=0:00:05.19    \nframe=    1 fps=0.2 q=53.0 size=       1KiB time=00:00:00.00 bitrate=N/A speed=   0x elapsed=0:00:05.70    \nframe=    1 fps=0.2 q=53.0 size=       1KiB time=00:00:00.00 bitrate=N/A speed=   0x elapsed=0:00:06.22    \nframe=    7 fps=1.0 q=62.0 size=       1KiB time=00:00:00.20 bitrate=  28.5kbits/s speed=0.0297x elapsed=0:00:06.73    \nframe=    9 fps=1.2 q=61.0 size=       1KiB time=00:00:00.26 bitrate=  21.4kbits/s speed=0.0368x elapsed=0:00:07.24    \nframe=   11 fps=1.4 q=61.0 size=       1KiB time=00:00:00.33 bitrate=  17.1kbits/s speed=0.0429x elapsed=0:00:07.77    \nframe=   15 fps=1.8 q=61.0 size=       1KiB time=00:00:00.46 bitrate=  12.2kbits/s speed=0.0563x elapsed=0:00:08.28    \nframe=   19 fps=2.2 q=62.0 size=       1KiB time=00:00:00.60 bitrate=   9.5kbits/s speed=0.0682x elapsed=0:00:08.79    \nframe=   22 fps=2.4 q=63.0 size=       1KiB time=00:00:00.70 bitrate=   8.1kbits/s speed=0.0751x elapsed=0:00:09.31    \nframe=   24 fps=2.4 q=63.0 size=       1KiB time=00:00:00.76 bitrate=   7.4kbits/s speed=0.0779x elapsed=0:00:09.83    \nframe=   32 fps=3.1 q=63.0 size=       1KiB time=00:00:01.03 bitrate=   5.5kbits/s speed=0.0998x elapsed=0:00:10.35    \nframe=   39 fps=3.6 q=63.0 size=       1KiB time=00:00:01.26 bitrate=   4.5kbits/s speed=0.116x elapsed=0:00:10.88    \nframe=   43 fps=3.8 q=63.0 size=       1KiB time=00:00:01.40 bitrate=   4.1kbits/s speed=0.123x elapsed=0:00:11.39    \nframe=   52 fps=4.4 q=63.0 size=       1KiB time=00:00:01.70 bitrate=   3.4kbits/s speed=0.142x elapsed=0:00:11.94    \nframe=   57 fps=4.6 q=61.0 size=       1KiB time=00:00:01.86 bitrate=   3.1kbits/s speed=0.15x elapsed=0:00:12.46    \nframe=   65 fps=5.0 q=58.0 size=       1KiB time=00:00:02.13 bitrate=   2.7kbits/s speed=0.164x elapsed=0:00:12.98    \nframe=   73 fps=5.4 q=61.0 size=       1KiB time=00:00:02.40 bitrate=   2.4kbits/s speed=0.178x elapsed=0:00:13.49    \nframe=   83 fps=5.9 q=63.0 size=       1KiB time=00:00:02.73 bitrate=   2.1kbits/s speed=0.195x elapsed=0:00:14.01    \nframe=   89 fps=6.1 q=62.0 size=       1KiB time=00:00:02.93 bitrate=   1.9kbits/s speed=0.202x elapsed=0:00:14.53    \nframe=   97 fps=6.4 q=59.0 size=       1KiB time=00:00:03.20 bitrate=   1.8kbits/s speed=0.213x elapsed=0:00:15.04    \nframe=  105 fps=6.7 q=61.0 size=       1KiB time=00:00:03.46 bitrate=   1.6kbits/s speed=0.223x elapsed=0:00:15.56    \nframe=  113 fps=7.0 q=59.0 size=       1KiB time=00:00:03.73 bitrate=   1.5kbits/s speed=0.232x elapsed=0:00:16.08    \nframe=  121 fps=7.3 q=61.0 size=       1KiB time=00:00:04.00 bitrate=   1.4kbits/s speed=0.241x elapsed=0:00:16.59    \nframe=  133 fps=7.8 q=63.0 size=       1KiB time=00:00:04.40 bitrate=   1.3kbits/s speed=0.257x elapsed=0:00:17.11    \nframe=  139 fps=7.9 q=63.0 size=       1KiB time=00:00:04.60 bitrate=   1.2kbits/s speed=0.261x elapsed=0:00:17.62    \n[out#0/matroska @ 000001bb22c50c00] video:568KiB audio:0KiB subtitle:0KiB other streams:0KiB global headers:0KiB muxing overhead: 0.248574%\nframe=  150 fps=8.4 q=63.0 Lsize=     569KiB time=00:00:04.96 bitrate= 938.7kbits/s speed=0.277x elapsed=0:00:17.92    \n",
  "seconds": 18.427167415618896,
  "probe_out": {}
}